<?xml version="1.0" encoding="UTF-8" standalone="no"?>
<svg
   width="200"
   height="200"
   viewBox="0 0 200 200"
   version="1.1"
   id="svg17"
   sodipodi:docname="icon.svg"
   inkscape:version="1.2.2 (b0a8486541, 2022-12-01)"
   xmlns:inkscape="http://www.inkscape.org/namespaces/inkscape"
   xmlns:sodipodi="http://sodipodi.sourceforge.net/DTD/sodipodi-0.dtd"
   xmlns="http://www.w3.org/2000/svg"
   xmlns:svg="http://www.w3.org/2000/svg">
  <sodipodi:namedview
     id="namedview19"
     pagecolor="#ffffff"
     bordercolor="#666666"
     borderopacity="1.0"
     inkscape:showpageshadow="2"
     inkscape:pageopacity="0.0"
     inkscape:pagecheckerboard="0"
     inkscape:deskcolor="#d1d1d1"
     showgrid="false"
     inkscape:zoom="1.18"
     inkscape:cx="100.42373"
     inkscape:cy="100"
     inkscape:window-width="3440"
     inkscape:window-height="1403"
     inkscape:window-x="1920"
     inkscape:window-y="0"
     inkscape:window-maximized="1"
     inkscape:current-layer="svg17" />
  <defs
     id="defs7">
    <linearGradient
       id="bg"
       x1="0%"
       y1="0%"
       x2="100%"
       y2="100%">
      <stop
         offset="0%"
         style="stop-color:#2d3436;stop-opacity:1"
         id="stop2" />
      <stop
         offset="100%"
         style="stop-color:#1a1a2e;stop-opacity:1"
         id="stop4" />
    </linearGradient>
  </defs>
  <!-- Background -->
  <rect
     width="200"
     height="200"
     fill="url(#bg)"
     rx="24"
     id="rect9" />
  <!-- Letter P -->
  <g
     aria-label="P"
     id="text11"
     style="font-weight:900;font-size:100px;font-family:'Arial Black', Impact, sans-serif;fill:#ffffff;stroke:#ffffff;stroke-width:3">
    <path
       d="m 61.8,68.6 q 13.8,0 20.1,6 6.4,5.9 6.4,16.3 0,6.2 -2.6,11.7 -2.6,5.4 -8.7,8.7 -6,3.3 -16.4,3.3 H 54.1 V 140 H 39 V 68.6 Z M 61,81 h -6.9 v 21.2 h 5 q 6.4,0 10.1,-2.5 Q 73,97.1 73,91.4 73,81 61,81 Z"
       id="path182" />
  </g>
  <!-- Letter K -->
  <g
     aria-label="K"
     id="text13"
     style="font-weight:900;font-size:100px;font-family:'Arial Black', Impact, sans-serif;fill:#ffffff;stroke:#ffffff;stroke-width:3">
    <path
       d="m 181.4,140 h -17.2 l -18.7,-30.1 -6.4,4.6 V 140 H 124 V 68.6 h 15.1 v 32.7 q 1.5,-2.1 3,-4.2 1.5,-2.1 3,-4.2 l 19.3,-24.3 h 16.8 l -24.9,31.6 z"
       id="path179" />
  </g>
  <!-- Kerning space indicator - bright vertical bar -->
  <rect
     x="97"
     y="60"
     width="16"
     height="80"
     fill="#00d2ff"
     rx="4"
     id="rect15" />
</svg>
